<?xml version="1.0" encoding="UTF-8"?>
<svg width="752pt" height="752pt" version="1.1" viewBox="0 0 752 752" xmlns="http://www.w3.org/2000/svg">
 <path d="m546.21 474.51c-3.8398-2.4141-8.6875-2.5391-12.645-0.33203-6.6758 3.8828-8.7617 14.207-9.4727 20.363l-104.19 14.586c0.94141-2.4805 1.5312-5.0781 1.7539-7.7188 0.39062-6.9375-1.9766-13.746-6.5859-18.945l-50.625-57.254 54.18-32.867c1.6328-0.96484 3.1289-2.1445 4.4492-3.5039 3.2734-0.95703 6.375-2.4297 9.1875-4.3594l58.867 5.0195-1.043 11.887v0.003907c-0.24609 2.6016 1.6602 4.9102 4.2617 5.1602h0.050782c2.457 0.011719 4.5117-1.8594 4.7344-4.3086l1.2773-12.031 14.207 1.2305h0.42578v0.003906c2.6172 0.10156 4.8242-1.9336 4.9258-4.5469 0.10547-2.6172-1.9297-4.8203-4.5469-4.9258l-14.207-1.2305 1.2773-14.633h0.003906c0.23438-2.6172-1.6953-4.9297-4.3125-5.1641-2.6133-0.23438-4.9258 1.6953-5.1602 4.3086l-1.3242 14.68-51.004-4.3555h-0.003906c3.5625-5.1367 5.5977-11.18 5.875-17.426 3.2188-72.129-87.328-125.07-97.703-130.85-7.7266-4.3242-16.852-5.4023-25.375-3.0078-8.5234 2.3984-15.746 8.0781-20.086 15.793-0.44141 0.75781-0.82031 1.5156-1.1367 2.2734 5.2031-15.297 1.9844-32.199-8.4727-44.52-10.457-12.316-26.617-18.234-42.555-15.586-15.938 2.6523-29.312 13.48-35.223 28.52-5.9062 15.039-3.4805 32.074 6.3945 44.867 9.8711 12.789 25.738 19.453 41.781 17.547 16.047-1.9062 29.91-12.102 36.512-26.848-2.0977 6.5898-2.0977 13.668 0 20.258 2.0938 6.5898 6.1797 12.367 11.695 16.539l-1.5625 34.336-51.762 16.48c-6.2305 1.4844-11.285 6.0195-13.438 12.051-2.1562 6.0312-1.1172 12.742 2.7617 17.84 3.875 5.0977 10.066 7.8906 16.453 7.4258 1.6016-0.023437 3.1914-0.24609 4.7344-0.66406l73.266 6.2539-32.629 19.844v-0.003907c-6.6602 4.0469-11.176 10.84-12.328 18.543-1.1523 7.7031 1.1797 15.52 6.3594 21.336l70.184 78.945-152.49 21.5c-3.8867 0.28906-7.7227-1.0273-10.609-3.6484-2.7617-2.7695-6.7031-4.0273-10.559-3.3594-3.6484 1.043-6.5352 4.4531-9.4727 11.414v-0.003906c-2.8398 5.4336-2.75 11.934 0.23828 17.285 5.9648 9.8516 21.262 11.461 22.969 11.461h1.043l324.36-47.832h0.66406c17.949-5.4453 21.547-15.629 22.07-21.215h-0.003906c0.10547-5.5469-1.3906-11.004-4.3047-15.723-2.9141-4.7227-7.125-8.5-12.129-10.891zm-287.32-210.46c-9.6328-0.0625-18.848-3.9453-25.621-10.793-6.7773-6.8477-10.555-16.102-10.516-25.734 0.042969-9.6328 3.9023-18.855 10.738-25.645 6.832-6.7891 16.078-10.59 25.711-10.57 9.6328 0.023437 18.863 3.8633 25.668 10.68 6.8047 6.8203 10.625 16.059 10.625 25.691-0.011719 9.6836-3.8789 18.965-10.75 25.789-6.8711 6.8242-16.176 10.633-25.855 10.582zm8.9023 97.273c-2.418 0.78516-5.0508 0.5625-7.3047-0.61328-2.25-1.1758-3.9375-3.207-4.6797-5.6367-0.86328-2.4609-0.67188-5.168 0.52344-7.4844 1.1523-2.2617 3.1641-3.9688 5.5859-4.7344l54.984-17.523c1.8828-0.61328 3.1875-2.332 3.2695-4.3086l1.8008-40.207h-0.003906c0.097656-1.7109-0.73438-3.3398-2.1758-4.2617-5.4609-3.2422-9.4062-8.5195-10.973-14.668-1.5664-6.1484-0.62891-12.672 2.6133-18.129 3.2383-5.457 8.5156-9.4023 14.664-10.973 6.1523-1.5664 12.672-0.625 18.129 2.6133 9.8516 5.6367 95.855 55.836 92.965 122.47-0.23438 6.4727-3.1094 12.562-7.957 16.859l-56.828-4.7344 14.492-8.8555c1.418-0.86719 2.2812-2.4141 2.2734-4.0742v-1.1367c0.94531-22.59-25.43-47.359-41.203-59.719-0.84375-0.67969-1.8984-1.0469-2.9844-1.043-0.66797 0.003906-1.332 0.14844-1.9414 0.42578-1.6211 0.72656-2.6992 2.3008-2.793 4.0742l-1.4688 32.488c-0.14453 4.0312-2.8242 7.5273-6.6758 8.7148zm25.48 1.8008 41.863-13.309c3.7266-1.168 7-3.4609 9.375-6.5664 2.375-3.1016 3.7305-6.8633 3.8828-10.766l1.043-22.781c19.371 16.859 30.262 32.867 30.453 44.801l-23.348 14.207zm18.09 67.152c-3.3125-3.7109-4.8047-8.7031-4.0742-13.625 0.73047-4.9219 3.6133-9.2656 7.8594-11.852l43.664-26.566 56.402 4.7344h0.003906c-0.54688 0.4375-1.1172 0.85156-1.707 1.2305l-58.816 35.848c-1.25 0.69141-2.1211 1.9102-2.3672 3.3164-0.20703 1.3828 0.20703 2.7891 1.1328 3.8359l54.605 61.566c2.6914 3.0469 4.1758 6.9688 4.1758 11.035 0 4.0625-1.4844 7.9883-4.1758 11.031l-21.879 3.0781c-1.2461-0.78516-2.3789-1.7422-3.3633-2.8398zm226.8 82.688-323.17 47.738c-3.5039-0.37891-12.312-2.1797-15.105-6.8203-0.47266-0.80469-1.9883-3.2695 0.37891-8.668h-0.003906c0.73047-2.1445 1.8555-4.1367 3.3164-5.8711 0.90625 0.49219 1.7734 1.0469 2.6055 1.6562 4.8047 4.0039 11.02 5.8984 17.238 5.2578 15.25-2.0352 303.09-42.621 306.07-42.621 2.3555-0.33594 4.0977-2.3594 4.0742-4.7383 0-5.7773 1.9883-14.727 5.0195-16.527 0.28516 0 1.0898-0.61719 3.4102 0.56641v0.003906c3.293 1.5234 6.1055 3.9258 8.125 6.9414 2.0234 3.0156 3.1758 6.5273 3.3359 10.152-0.90234 7.0117-8.7148 10.895-15.297 12.93z" fill="#00535f"/>
</svg>
